<svg version="1.2" xmlns="http://www.w3.org/2000/svg" viewBox="0 0 107 128" width="107" height="128"><style>tspan{white-space:pre}.a{fill:#ff3e00}.b{font-size: 75px;fill: #ffffff;font-weight: 400;font-family: "Destroy", "Destroy"}</style><path class="a" d="m94.2 22.8c-10.4-14.9-31-19.3-45.8-9.8l-26.1 16.6q-2.7 1.7-4.9 3.8-2.2 2.2-4 4.8-1.7 2.6-2.9 5.5-1.2 2.9-1.7 5.9-0.5 2.6-0.5 5.2-0.1 2.6 0.3 5.2 0.4 2.6 1.2 5.1 0.9 2.5 2.1 4.8-0.9 1.2-1.6 2.6-0.7 1.3-1.2 2.7-0.6 1.5-1 2.9-0.4 1.5-0.7 3-0.6 3.1-0.5 6.3 0.1 3.2 0.8 6.3 0.7 3.1 2 6 1.3 2.9 3.1 5.5c10.4 14.9 31 19.3 45.8 9.8l26.1-16.6q2.7-1.7 4.9-3.8 2.2-2.2 4-4.8 1.7-2.6 2.9-5.5 1.2-2.9 1.7-6 0.5-2.5 0.5-5.1 0.1-2.6-0.3-5.2-0.4-2.6-1.2-5.1-0.9-2.5-2.1-4.8 0.9-1.2 1.6-2.6 0.7-1.3 1.2-2.7 0.6-1.5 1-2.9 0.4-1.5 0.7-3 0.6-3.1 0.5-6.3-0.1-3.2-0.8-6.3-0.7-3.1-2-6-1.3-2.9-3.1-5.5z"/><text style="transform:matrix(1,0,0,1,20.112,94.961)" ><tspan x="0" y="0" class="b">Y
</tspan></text></svg>